<svg xmlns="http://www.w3.org/2000/svg" width="80" height="80" viewBox="0 0 80 80">
    <g fill="none" fill-rule="evenodd">
        <path d="M0 0h80v80H0z"/>
        <path fill="#565454" d="M52.172 41.442a6.707 6.707 0 0 1-6.7-6.7c0-3.695 3.006-6.7 6.7-6.7 3.694 0 6.7 3.005 6.7 6.7 0 3.695-3.006 6.7-6.7 6.7M60 57.631H64.454c.854 0 1.546.692 1.546 1.547v3.092c0 4.262-3.468 7.73-7.73 7.73H21.986a6.986 6.986 0 0 1-5.79-3.084A6.946 6.946 0 0 1 15 63.015v-46.03c.002-3.85 3.135-6.983 6.986-6.985l15.514.02L53.014 10c3.852.002 6.985 3.135 6.986 6.985v2.96h-.006a1.55 1.55 0 0 1-3.097 0h-.005v-2.96a3.898 3.898 0 0 0-3.877-3.877h-31.03a3.9 3.9 0 0 0-3.877 3.877v46.03a3.9 3.9 0 0 0 3.878 3.877h1.31c2.485-.084 4.484-2.118 4.484-4.622v-3.092c0-.855.69-1.547 1.545-1.547h27.567v-6.175h.009c-.002-.031-.009-.061-.009-.092a1.553 1.553 0 1 1 3.106 0c0 .03-.007.06-.009.092H60v6.175zm5.488-11.894a1.754 1.754 0 0 1 0 2.476 1.74 1.74 0 0 1-1.237.512c-.468 0-.907-.182-1.238-.512l-.62-.62-2.38-2.38-2.07-2.07a10.125 10.125 0 0 1-5.77 1.8c-5.626 0-10.2-4.577-10.2-10.2 0-5.626 4.574-10.2 10.2-10.2 5.624 0 10.2 4.574 10.2 10.2 0 2.146-.667 4.2-1.93 5.95l2.178 2.176 2.305 2.306.562.562zM27.915 28.701a1.555 1.555 0 0 1-1.554-1.553c0-.857.698-1.554 1.554-1.554h9.874a1.555 1.555 0 0 1 0 3.107h-9.874zm0 18.33a1.556 1.556 0 0 1-1.554-1.553c0-.857.698-1.554 1.554-1.554h11.874a1.555 1.555 0 0 1 0 3.108H27.915zm8.17-12.614a1.555 1.555 0 0 1 0 3.108h-8.17a1.556 1.556 0 0 1-1.554-1.554c0-.857.697-1.554 1.554-1.554h8.17zM62.909 62.27v-1.546H30.87v1.546a7.688 7.688 0 0 1-1.54 4.622c-.003.005-.005.01-.01.016H58.27c.097 0 .188-.023.284-.03 2.423-.15 4.354-2.15 4.354-4.608z"/>
    </g>
</svg>
