<svg xmlns="http://www.w3.org/2000/svg" width="80" height="80" viewBox="0 0 80 80">
    <g fill="none" fill-rule="evenodd">
        <path d="M0 0h80v80H0z"/>
        <path fill="#00524C" d="M47.641 63.972c-.992 0-1.836-.85-1.843-1.857a1.86 1.86 0 0 1 1.833-1.882h.015c1.011 0 1.838.832 1.843 1.854a1.871 1.871 0 0 1-1.848 1.885m14.334-6.77c.808.007 1.461.627 1.504 1.408.134 2.466-1.812 4.849-4.082 5-.29.02-.771.025-1.286.025-1.038 0-2.205-.025-2.205-.026l-1.688.006c-.424 0-.846-.003-1.27-.014h-.002c-.454 0-.685.157-.867.557-.812 1.78-2.496 2.842-4.504 2.842-.138 0-.277-.006-.417-.015-1.908-.143-3.687-1.629-4.229-3.534-.706-2.481.59-5.035 3.014-5.94a4.904 4.904 0 0 1 1.712-.31 4.885 4.885 0 0 1 4.408 2.811c.194.416.442.577.884.577.835-.01 1.645-.012 2.455-.012l2.85.002c1.472 0 2.092-.568 2.21-2.021.063-.773.714-1.356 1.513-1.356zm-5.117-22.1C62.45 35.102 67 39.652 67 45.244s-4.55 10.143-10.143 10.143a1.578 1.578 0 0 1-1.578-1.578V36.68c0-.87.706-1.577 1.578-1.577zm1.577 16.95c3.095-.718 5.41-3.498 5.41-6.808 0-3.31-2.315-6.09-5.41-6.808v13.615zm-35.293-16.95c.872 0 1.578.706 1.578 1.577v17.13c0 .87-.706 1.578-1.578 1.578C17.55 55.387 13 50.837 13 45.244c0-5.593 4.55-10.142 10.142-10.142zm-1.577 16.95V38.435c-3.095.717-5.41 3.498-5.41 6.808 0 3.31 2.315 6.09 5.41 6.807zm33.982-20.345c0-8.575-6.977-15.552-15.552-15.552s-15.552 6.977-15.552 15.552a1.578 1.578 0 0 1-3.156 0C21.287 21.392 29.68 13 39.995 13c10.315 0 18.707 8.392 18.707 18.707a1.578 1.578 0 0 1-3.155 0z"/>
    </g>
</svg>
