<svg xmlns="http://www.w3.org/2000/svg" width="80" height="80" viewBox="0 0 80 80">
    <g fill="none" fill-rule="evenodd">
        <path d="M0 0h80v80H0z"/>
        <path fill="#00524C" d="M37.5 45.946c0 .857-.657 1.554-1.464 1.554h-7.072c-.807 0-1.464-.697-1.464-1.554 0-.857.657-1.554 1.464-1.554h7.072c.807 0 1.464.697 1.464 1.554zm-8.535 7.553h4.07c.809 0 1.466.697 1.466 1.554 0 .857-.657 1.553-1.465 1.553h-4.071c-.808 0-1.464-.696-1.464-1.553s.656-1.554 1.464-1.554zM52.5 36.84c0 .856-.657 1.553-1.464 1.553H28.964c-.807 0-1.464-.697-1.464-1.554 0-.857.657-1.554 1.464-1.554h22.072c.807 0 1.464.697 1.464 1.554zm4.444 25.128l5.045 5.045a1.754 1.754 0 0 1 0 2.476 1.74 1.74 0 0 1-1.237.512c-.468 0-.907-.182-1.238-.512l-5.07-5.07a10.125 10.125 0 0 1-5.771 1.799c-5.625 0-10.2-4.576-10.2-10.2 0-5.625 4.575-10.2 10.2-10.2 5.625 0 10.2 4.575 10.2 10.2 0 2.147-.666 4.2-1.93 5.95zm-8.271.75c3.694 0 6.7-3.005 6.7-6.7 0-3.695-3.006-6.7-6.7-6.7a6.707 6.707 0 0 0-6.7 6.7c0 3.695 3.006 6.7 6.7 6.7zM55.514 19c3.851.001 6.984 3.135 6.986 6.985v21.026a1.555 1.555 0 0 1-3.109 0V25.985a3.898 3.898 0 0 0-3.876-3.877H53.5v-3.106L55.514 19zm-15.68 47.893a1.553 1.553 0 0 1 0 3.105V70H24.485a6.99 6.99 0 0 1-5.79-3.084 6.943 6.943 0 0 1-1.195-3.901v-37.03c.001-3.85 3.135-6.984 6.985-6.985l2.015.002V15.851a1.5 1.5 0 0 1 1.5-1.5h5.212A7.507 7.507 0 0 1 40 10a7.507 7.507 0 0 1 6.788 4.351H52a1.5 1.5 0 0 1 1.5 1.5V25.5A1.5 1.5 0 0 1 52 27H28a1.5 1.5 0 0 1-1.5-1.5v-3.392h-2.016a3.899 3.899 0 0 0-3.876 3.877v37.03a3.9 3.9 0 0 0 3.877 3.877h15.35v.001zM29.5 22v2h21v-6.649h-4.752a1.5 1.5 0 0 1-1.443-1.092A4.492 4.492 0 0 0 40 13a4.491 4.491 0 0 0-4.305 3.259 1.5 1.5 0 0 1-1.444 1.092h-4.75V22z"/>
    </g>
</svg>
