<svg xmlns="http://www.w3.org/2000/svg" width="80" height="80" viewBox="0 0 80 80">
    <g fill="none" fill-rule="evenodd">
        <path d="M0 0h80v80H0z"/>
        <path fill="#00524C" d="M67.66 55.963a7.488 7.488 0 0 1-.51 1.232 1.389 1.389 0 0 0 .1 1.451l.902 1.267a.046.046 0 0 1-.005.061l-1.393 1.393s-.016.004-.07-.008l-1.248-.89a1.385 1.385 0 0 0-1.456-.102 7.576 7.576 0 0 1-1.236.512 1.387 1.387 0 0 0-.956 1.096l-.26 1.535c-.004.023-.022.038-.047.038h-1.968c-.025 0-.042-.014-.046-.037l-.255-1.533a1.388 1.388 0 0 0-.954-1.098 7.473 7.473 0 0 1-1.196-.492 1.397 1.397 0 0 0-1.448.101l-1.328.917-.01-.01-1.396-1.394a.04.04 0 0 1-.004-.05l.897-1.249c.312-.434.35-.997.1-1.468a7.369 7.369 0 0 1-.519-1.228 1.386 1.386 0 0 0-1.092-.95l-1.555-.265c-.024-.005-.038-.022-.038-.046v-1.965c0-.025.014-.043.04-.047l1.512-.255a1.385 1.385 0 0 0 1.101-.966 7.28 7.28 0 0 1 .501-1.234 1.386 1.386 0 0 0-.1-1.449l-.914-1.284a.043.043 0 0 1 .004-.057l1.398-1.396s.018-.003.07.007l1.236.89c.434.312.997.35 1.47.098a7.475 7.475 0 0 1 1.226-.517c.498-.158.863-.576.951-1.092l.266-1.557c.003-.022.022-.037.046-.037h1.964c.024 0 .042.015.046.04l.255 1.513c.09.525.46.946.968 1.1.435.133.866.311 1.282.53a1.384 1.384 0 0 0 1.451-.1l1.313-.908a.073.073 0 0 1 .011.01l1.395 1.395c.015.014.016.034.002.052l-.904 1.265c-.306.43-.344.987-.099 1.454.204.39.376.806.512 1.236.157.502.577.868 1.094.955l1.536.262c.021.003.03.013.03.036v1.973c0 .025-.016.043-.039.047L68.761 55a1.39 1.39 0 0 0-1.1.963m3.084-5.907A2.687 2.687 0 0 1 73 52.746v1.952a2.71 2.71 0 0 1-2.266 2.68l-.795.131a5.524 5.524 0 0 1-.082.198l.47.658a2.71 2.71 0 0 1-.293 3.496l-1.39 1.39c-.915.916-2.453 1.044-3.502.29l-.649-.466a16.57 16.57 0 0 1-.198.082l-.135.796a2.708 2.708 0 0 1-2.679 2.264h-1.968a2.708 2.708 0 0 1-2.678-2.266l-.133-.796-.147-.06-.676.481c-1.043.75-2.576.621-3.49-.293L51 61.894a2.7 2.7 0 0 1-.294-3.495l.46-.639-.084-.197-.819-.14A2.703 2.703 0 0 1 48 54.745v-1.965c0-1.33.952-2.457 2.265-2.678l.77-.13a8.55 8.55 0 0 1 .082-.202l-.482-.676a2.709 2.709 0 0 1 .293-3.495l1.394-1.389c.91-.922 2.448-1.048 3.502-.29l.638.461a16.4 16.4 0 0 1 .196-.083l.14-.82a2.706 2.706 0 0 1 2.678-2.263h1.963c1.332 0 2.458.953 2.68 2.267l.13.77c.084.034.171.068.256.105l.657-.469c1.043-.749 2.575-.62 3.491.293l1.39 1.39a2.698 2.698 0 0 1 .293 3.495l-.469.656.083.198.795.135zm-7.662 3.66A2.586 2.586 0 0 1 60.5 56.3a2.586 2.586 0 0 1-2.582-2.583 2.585 2.585 0 0 1 2.582-2.582 2.585 2.585 0 0 1 2.583 2.582zm-2.583-5.25a5.257 5.257 0 0 0-5.251 5.25 5.257 5.257 0 0 0 5.25 5.252 5.257 5.257 0 0 0 5.253-5.252 5.257 5.257 0 0 0-5.252-5.25zm5.437-24.391c.042.145.063.279.063.407v12.147a1.473 1.473 0 0 1-2.946 0V26.584l-24.582 8.938v27.903l6.044-2.172.004-.001.103-.037.001.005c.148-.05.303-.083.467-.083a1.473 1.473 0 0 1 .557 2.835l-8.183 2.947A1.45 1.45 0 0 1 37 67c-.152 0-.31-.028-.473-.083.001.002-.014 0-.03-.006L8.97 56.902A1.476 1.476 0 0 1 8 55.518V24.482a1.422 1.422 0 0 1 .095-.496l.013-.031a1.395 1.395 0 0 1 .401-.574l.03-.027a1.03 1.03 0 0 1 .06-.053l.028-.025c.1-.069.21-.127.33-.172l27.54-10.016a1.488 1.488 0 0 1 1.006-.001l27.554 10.024c.106.038.216.095.315.164l.026.023c.025.02.044.038.064.056l.028.027a1.419 1.419 0 0 1 .277.322c.05.08.091.163.125.253l.012.03a.857.857 0 0 1 .033.089zM51.72 27.571l8.498-3.09L37 16.039l-8.498 3.09 23.218 8.442zM37 32.924l10.477-3.81-23.218-8.442-10.477 3.809L37 32.924zm-1.473 30.501V35.522l-24.582-8.938v27.903l24.582 8.938z"/>
    </g>
</svg>
