<svg xmlns="http://www.w3.org/2000/svg" width="80" height="80" viewBox="0 0 80 80">
    <g fill="none" fill-rule="evenodd">
        <path d="M0 0h80v80H0z"/>
        <path fill="#00524C" d="M40 13C25.088 13 13 25.09 13 40c0 14.912 12.088 27 27 27 14.911 0 27-12.088 27-27H40V13zm-3.024 3.214V43.024H63.786C62.296 54.822 52.196 63.976 40 63.976 26.78 63.976 16.024 53.22 16.024 40c0-12.196 9.154-22.295 20.952-23.786zm7.344-2.985c12.313 1.478 20.973 10.138 22.45 22.451H44.32V13.23zm3.024 3.634v15.793h15.793c-2.059-7.99-7.803-13.734-15.793-15.793z"/>
    </g>
</svg>
