<svg xmlns="http://www.w3.org/2000/svg" width="140" height="30" viewBox="0 0 140 30">
    <g fill="none" fill-rule="evenodd">
        <path fill="#004D55" d="M12.247 17.506c.211-7.363 4.162-11.004 11.81-10.964l.82.004-.03 5.943-1.945-.01c-3.197-.017-4.804 1.654-4.822 4.97l-.06 11.842-5.833-.03.06-11.755zm34.464 2.434c-.02 3.919-1.028 6.498-3.065 7.736-2.036 1.152-4.286 1.743-6.75 1.73-2.375-.012-4.49-.668-6.47-1.97-1.981-1.26-2.962-3.762-2.942-7.594l.07-13.694 5.747.03-.076 14.856c-.014 2.54 1.276 3.796 3.868 3.809 2.593.013 3.896-1.228 3.908-3.769l.063-12.015c-.034-1.895.879-2.837 2.78-2.828l2.938.016-.071 13.693zm12.46 5.017c2.419.012 3.632-.67 3.64-2.134.006-1.163-1.977-2.12-5.905-2.83-5.05-.93-7.632-3.183-7.656-6.758.025-4.908 3.926-7.214 9.154-7.273 2.938.015 5.268.673 6.99 1.973 1.678 1.344 2.576 3.2 2.693 5.57l-3.63-.02c-1.339-.049-2.2-.527-2.541-1.433-.384-.993-1.547-1.559-3.449-1.568-2.246-.012-3.373.585-3.379 1.748-.006 1.163 1.458 2.075 4.437 2.65 3.884.795 6.429 1.799 7.675 2.968 1.075 1.125 1.586 2.506 1.578 4.056-.029 5.598-4.447 7.642-10.495 7.611-3.197-.016-5.614-.718-7.162-2.061-1.722-1.3-2.576-3.286-2.562-5.913l5.876.03c.117 2.499 1.927 3.37 4.735 3.384zm19.468-14.279l-1.551-.003-.066 12.618c-.004.947.555 1.466 1.678 1.472l1.772.01-.023 4.349c-1.859.162-3.89.152-6.049-.075-2.16-.226-3.189-1.566-3.133-4.107l.13-24.89 2.98.016c1.513.007 2.758 1.392 2.75 2.899l-.018 3.617 4.404.018-.007 1.249c-.008 1.636-1.268 2.836-2.867 2.827zm-71.265 0l-1.551-.003-.066 12.618c-.005.947.555 1.466 1.678 1.472l1.772.01-.023 4.349c-1.859.162-3.89.152-6.049-.075-2.16-.226-3.189-1.566-3.133-4.107L.131.052l2.981.016C4.625.075 5.87 1.46 5.862 2.967l-.018 3.617 4.403.018-.006 1.249c-.009 1.636-1.268 2.836-2.867 2.827z"/>
        <path fill="#B6D232" d="M115.44 21.841l-4.594-3.171 4.625-2.788-.031 5.96zm-13.397 5.516l-1.678-2.369 1.882-1.135-.204 3.504zm-2.225-3.142l-4.562-6.441 3.295-3.857 2.195 8.45 2.04-7.748-.472 8.092-2.496 1.504zm-8.107-17.61l-.032 6.119L86.06 4.79l.009-1.662c0-.135.013-.267.03-.399l5.612 3.876zm7.842 18.872l2.704 3.85h-4.658l-.577-2.324 2.531-1.526zm10.24-6.172l.166-.1 5.475 3.78-.033 6.342h-5.66l.051-10.022zm.71-16.777l5.03 1.415-.012 2.075-5.018-3.49zm-4.799 19.241l-1.97 7.558h-.859l.355-6.066 2.474-1.492zm-11.118-4.666L92.002 6.806l5.729 3.955.53 2.04-3.675 4.302zm12.582-.973l-3.387-2.339.222-3.8.934-3.55 3.555-4.162 7.024 4.884-.04 7.613-5.482 3.305-.195-.134.063-12.199-2.694 10.382zm1.879-16.1l-3.557 4.307 1.2-4.307h2.357zM99.006 24.705l-2.222 1.34-1.715-6.9 3.937 5.56zm16.531-21.741l-6.152-1.731.96-1.203h5.207l-.015 2.934zm-29.6 25.72l5.695-6.667-.038 7.31h-5.66l.003-.643zm5.734-14.336l-.032 6.205-5.695 6.667.108-20.806 5.62 7.934zm12.046.547l3.198 2.208-.871 3.36-2.748 1.656.421-7.224zM94.942.03l2.425 9.332-10.985-7.585C86.876.739 87.905-.006 89.11 0l5.833.03zm28.604 29.297h-4.861v-4.271l5.32 3.75-.459.52zM139.558.109l-8.11 4.94-1.964-4.94h10.074zM121.361 11.13l-2.676 1.642V9.25l2.676 1.881zm5.133 18.197l-1.104-.712 3.804-4.607 7.81.045 2.298 5.274h-12.808zm-7.81-21.224V4.73l5.906 1.415-.014 3.048-2.329 1.404-3.562-2.494zm16.034 7.732c-.129.542-1.154.614-1.154.614l-2.918-.012-7.55-5.25 1.474-.888-.006 1.154 8.43.043 1.724 4.339zm-16.03-12.638c.01-2.024 1.009-3.055 3.04-3.088h6.736l2.025 5.087-5.892-.03h-.002l-5.91-1.415.002-.554zm-.003 10.681l3.525-2.157 6.77 4.708-4.442-.024-.039 7.579 3.474.018-3.364 4.073-5.924-4.163V13.878zm17.319-.428c-.007 1.196-.599 1.552-.599 1.552l-1.392-3.5 2 .01-.01 1.938zm3.93-8.205l-6.92-.036 6.942-4.316-.021 4.352zm-.097 18.818l-.01 4.302-1.886-4.307 1.896.005z"/>
    </g>
</svg>
