<svg xmlns="http://www.w3.org/2000/svg" xmlns:xlink="http://www.w3.org/1999/xlink" width="34" height="34" viewBox="0 0 34 34">
    <defs>
        <rect id="a" width="34" height="34" rx="17"/>
    </defs>
    <g fill="none" fill-rule="evenodd">
        <use fill="#00524C" xlink:href="#a"/>
        <path fill="#FFF" d="M24.498 20.625c-1.245 2.88-4.162 4.74-7.43 4.74-3.338 0-6.272-1.87-7.474-4.764a.973.973 0 0 1 1.795-.745c.901 2.166 3.129 3.566 5.68 3.566 2.492 0 4.707-1.4 5.644-3.57a.973.973 0 0 1 1.785.773zm-4.75-8.23a2.01 2.01 0 1 1 4.021.002 2.01 2.01 0 0 1-4.021-.002zm-9.112 0a2.01 2.01 0 1 1 4.02 0 2.01 2.01 0 0 1-4.02 0z"/>
    </g>
</svg>
